<svg xmlns="http://www.w3.org/2000/svg" width="15" height="20" viewBox="0 0 15 20">
  <g fill="none" fill-rule="evenodd" transform="translate(1 1)">
    <rect width="12.371" height="18" stroke="#00425F" stroke-width="1.44" rx="2.16"/>
    <path fill="#00425F" fill-rule="nonzero" d="M6.26783912,11.5363636 C5.32291554,11.5363636 4.73614847,11.2037727 4.36275125,10.7466136 L4.36275125,10.9227273 C4.36275125,11.2614545 4.07889316,11.5363636 3.72772196,11.5363636 C3.37655076,11.5363636 3.09269267,11.2614545 3.09269267,10.9227273 L3.09269267,9.08181818 C3.09269267,8.74309091 3.37655076,8.46818182 3.72772196,8.46818182 L5.63280983,8.46818182 C5.98398103,8.46818182 6.26783912,8.74309091 6.26783912,9.08181818 C6.26783912,9.42054545 5.98398103,9.69545455 5.63280983,9.69545455 L5.18828933,9.69545455 C5.40927952,10.1980227 5.7471151,10.3090909 6.26783912,10.3090909 C7.31817757,10.3090909 8.17292699,9.49172727 8.17292699,8.48781818 C8.17292699,7.46181818 7.31817757,6.62727273 6.26783912,6.62727273 C5.68805738,6.62727273 5.31021495,6.78068182 4.96539405,7.15806818 C4.73424338,7.41272727 4.33290487,7.43665909 4.06936772,7.21206818 C3.80646559,6.98747727 3.78169945,6.59965909 4.01412017,6.34561364 C4.595807,5.70927273 5.33244098,5.4 6.26783912,5.4 C8.01861487,5.4 9.44298557,6.78497727 9.44298557,8.48781818 C9.44298557,10.1685682 8.01861487,11.5363636 6.26783912,11.5363636"/>
    <ellipse cx="6.052" cy="15.218" fill="#00425F" rx="1" ry="1"/>
  </g>
</svg>
